<svg width="226" height="448" viewBox="0 0 226 448" fill="none" xmlns="http://www.w3.org/2000/svg">
<path opacity="0.9" d="M224.009 101.548H220.828C219.888 101.548 219.126 102.31 219.126 103.25V154.114C219.126 155.054 219.888 155.816 220.828 155.816H224.009C224.949 155.816 225.711 155.054 225.711 154.114V103.25C225.711 102.31 224.949 101.548 224.009 101.548Z" fill="white"/>
<path opacity="0.9" d="M2.2947 59.0386H2.00485C1.06492 59.0386 0.302979 59.8005 0.302979 60.7405V75.2028C0.302979 76.1427 1.06492 76.9047 2.00485 76.9047H2.2947C3.23463 76.9047 3.99658 76.1427 3.99658 75.2028V60.7405C3.99658 59.8005 3.23463 59.0386 2.2947 59.0386Z" fill="white"/>
<path opacity="0.9" d="M2.62925 91.7461H1.87121C0.93128 91.7461 0.169312 92.5081 0.169312 93.448V121.139C0.169312 122.079 0.93128 122.841 1.87121 122.841H2.62925C3.56917 122.841 4.33114 122.079 4.33114 121.139V93.448C4.33114 92.5081 3.56917 91.7461 2.62925 91.7461Z" fill="white"/>
<path opacity="0.9" d="M2.49549 133.721H1.9381C0.998174 133.721 0.236206 134.483 0.236206 135.423V163.381C0.236206 164.321 0.998174 165.083 1.9381 165.083H2.49549C3.43542 165.083 4.19739 164.321 4.19739 163.381V135.423C4.19739 134.483 3.43542 133.721 2.49549 133.721Z" fill="white"/>
<path opacity="0.9" d="M193.702 0H31.3755C15.3721 0 2.3988 12.9733 2.3988 28.9767V418.709C2.3988 434.713 15.3721 447.686 31.3755 447.686H193.702C209.705 447.686 222.678 434.713 222.678 418.709V28.9767C222.678 12.9733 209.705 0 193.702 0Z" fill="white"/>
<path opacity="0.9" d="M119.168 13.3623H94.1597C92.5713 13.3623 91.2836 14.65 91.2836 16.2384V16.7289C91.2836 18.3174 92.5713 19.6051 94.1597 19.6051H119.168C120.756 19.6051 122.044 18.3174 122.044 16.7289V16.2384C122.044 14.65 120.756 13.3623 119.168 13.3623Z" fill="#E6E8EC"/>
<path opacity="0.9" d="M130.241 20.0363C132.199 20.0363 133.786 18.4491 133.786 16.4913C133.786 14.5334 132.199 12.9463 130.241 12.9463C128.283 12.9463 126.696 14.5334 126.696 16.4913C126.696 18.4491 128.283 20.0363 130.241 20.0363Z" fill="#E6E8EC"/>
<path d="M191.554 11.6528H166.36V14.6924C166.36 18.5123 164.843 22.1758 162.141 24.8768C159.44 27.5779 155.777 29.0953 151.957 29.0953H71.5595C67.7396 29.0953 64.0762 27.5779 61.3751 24.8768C58.6741 22.1758 57.1566 18.5123 57.1566 14.6924V11.6528H33.4937C31.1966 11.6528 28.9221 12.1054 26.7999 12.9847C24.6778 13.8639 22.7497 15.1527 21.1258 16.7773C19.5019 18.4019 18.214 20.3306 17.3356 22.4531C16.4572 24.5756 16.0056 26.8503 16.0066 29.1474V418.523C16.0056 420.82 16.4572 423.095 17.3356 425.218C18.214 427.34 19.5019 429.269 21.1258 430.893C22.7497 432.518 24.6778 433.807 26.7999 434.686C28.9221 435.565 31.1966 436.018 33.4937 436.018H191.554C196.194 436.018 200.644 434.175 203.924 430.894C207.205 427.613 209.048 423.163 209.048 418.523V29.1474C209.048 24.5075 207.205 20.0577 203.924 16.7769C200.644 13.496 196.194 11.6528 191.554 11.6528Z" fill="#203893"/>
<path opacity="0.3" d="M179.11 245.236H121.12V303.227H179.11V245.236Z" fill="#3A3768"/>
<path opacity="0.3" d="M93.6444 168.688H35.6538V226.679H93.6444V168.688Z" fill="#3A3768"/>
<path opacity="0.3" d="M99.2184 339.476H41.2278V397.467H99.2184V339.476Z" fill="#3A3768"/>
<path d="M167.482 224.331L124.481 263.239L163.39 306.24L206.39 267.331L167.482 224.331Z" fill="white"/>
<path d="M178.152 96.1836H120.161V154.174H178.152V96.1836Z" fill="white"/>
<path d="M104.844 160.84H46.8538V218.831H104.844V160.84Z" fill="white"/>
<path d="M101.991 288H44V345.991H101.991V288Z" fill="white"/>
<path d="M193.991 363H136V420.991H193.991V363Z" fill="white"/>
<path d="M166.64 114.733C165.406 115.278 164.099 115.636 162.761 115.796C164.167 114.956 165.222 113.637 165.733 112.08C164.405 112.868 162.952 113.423 161.438 113.723C160.513 112.729 159.311 112.036 157.987 111.736C156.663 111.436 155.28 111.542 154.017 112.041C152.755 112.539 151.672 113.407 150.91 114.53C150.149 115.654 149.743 116.981 149.747 118.338C149.743 118.858 149.801 119.377 149.918 119.884C147.23 119.75 144.6 119.051 142.2 117.832C139.8 116.613 137.684 114.901 135.991 112.809C135.128 114.3 134.864 116.063 135.253 117.741C135.642 119.42 136.655 120.887 138.087 121.846C137.01 121.819 135.956 121.528 135.017 120.998V121.08C135.017 122.643 135.557 124.157 136.546 125.366C137.535 126.576 138.912 127.406 140.443 127.717C139.861 127.872 139.261 127.952 138.659 127.955C138.232 127.954 137.807 127.912 137.388 127.828C137.822 129.171 138.664 130.345 139.796 131.186C140.928 132.028 142.295 132.496 143.705 132.525C141.311 134.407 138.353 135.428 135.307 135.424C134.768 135.421 134.23 135.389 133.695 135.327C136.774 137.327 140.368 138.388 144.04 138.382C156.488 138.382 163.288 128.074 163.288 119.126C163.288 118.833 163.288 118.543 163.288 118.256C164.606 117.291 165.741 116.098 166.64 114.733Z" fill="#203893"/>
<path d="M142.078 260.241L144.307 265.837L158.866 281.273L163.741 276.68L166.811 279.928L170.059 276.858L170.244 270.549L174.302 266.714L174.629 255.663L161.601 241.854L142.078 260.241ZM171.433 257.149L171.248 263.466L166.372 268.059L166.187 274.376L163.125 271.128L159.059 274.963L146.002 261.148L161.438 246.589L171.433 257.149Z" fill="#203893"/>
<path d="M159.58 254.385L162.017 252.088L168.201 258.636L165.763 260.925L159.58 254.385ZM153.894 259.751L156.332 257.447L162.508 264.002L160.07 266.298L153.894 259.751Z" fill="#203893"/>
<path d="M174.051 374.006H150.21C149.815 374.006 149.437 374.163 149.158 374.442C148.88 374.72 148.723 375.099 148.723 375.493V399.341C148.723 399.736 148.88 400.114 149.158 400.392C149.437 400.671 149.815 400.828 150.21 400.828H162.1V390.208H158.897V386.299H162.16V383.408C162.16 379.952 164.56 378.064 167.652 378.064C169.138 378.064 170.729 378.176 171.093 378.228V381.839H168.633C166.953 381.839 166.626 382.635 166.626 383.809V386.299H170.632L170.112 390.208H166.619V400.82H174.051C174.445 400.82 174.823 400.664 175.102 400.385C175.381 400.106 175.537 399.728 175.537 399.334V375.493C175.537 375.099 175.381 374.72 175.102 374.442C174.823 374.163 174.445 374.006 174.051 374.006Z" fill="#203893"/>
<path d="M81.1218 178.431C82.6008 178.435 84.0182 179.024 85.064 180.07C86.1099 181.116 86.6992 182.533 86.7031 184.013V195.16C86.6992 196.639 86.1099 198.057 85.064 199.103C84.0182 200.148 82.6008 200.738 81.1218 200.742H69.974C68.4943 200.739 67.0757 200.151 66.0277 199.107C65.5061 198.59 65.0923 197.976 64.8103 197.298C64.5284 196.621 64.3839 195.894 64.3853 195.16V184.013C64.3892 182.532 64.9795 181.114 66.027 180.068C67.0744 179.022 68.4937 178.433 69.974 178.431H81.1218ZM81.1218 176.202H69.974C67.9023 176.208 65.9171 177.033 64.4522 178.498C62.9872 179.963 62.1616 181.948 62.1558 184.02V195.168C62.1616 197.239 62.9872 199.225 64.4522 200.69C65.9171 202.154 67.9023 202.98 69.974 202.986H81.1218C83.1884 202.98 85.1691 202.159 86.6332 200.7C88.0973 199.242 88.9264 197.264 88.9401 195.197V184.05C88.9401 181.973 88.1173 179.982 86.652 178.511C85.1866 177.04 83.198 176.21 81.1218 176.202Z" fill="#203893"/>
<path d="M82.7938 184.028C82.461 184.029 82.1353 183.932 81.8579 183.748C81.5806 183.564 81.3642 183.301 81.2361 182.994C81.1081 182.687 81.0742 182.349 81.1388 182.022C81.2034 181.696 81.3634 181.396 81.5988 181.16C81.8341 180.925 82.1341 180.765 82.4606 180.7C82.7871 180.636 83.1254 180.67 83.4326 180.798C83.7398 180.926 84.0021 181.142 84.186 181.42C84.37 181.697 84.4675 182.023 84.466 182.355C84.467 182.575 84.4244 182.793 84.3407 182.997C84.257 183.2 84.1339 183.385 83.9784 183.54C83.823 183.696 83.6382 183.819 83.4349 183.902C83.2316 183.986 83.0137 184.029 82.7938 184.028ZM75.5627 185.12C76.4446 185.12 77.3068 185.382 78.04 185.872C78.7733 186.362 79.3449 187.058 79.6824 187.873C80.0199 188.688 80.1082 189.584 79.9361 190.449C79.7641 191.314 79.3393 192.109 78.7157 192.732C78.0921 193.356 77.2976 193.781 76.4326 193.953C75.5676 194.125 74.6711 194.036 73.8563 193.699C73.0415 193.361 72.345 192.79 71.8551 192.057C71.3651 191.323 71.1036 190.461 71.1036 189.579C71.1036 188.397 71.5734 187.262 72.4097 186.426C73.2459 185.59 74.3801 185.12 75.5627 185.12ZM75.5627 182.891C74.2398 182.891 72.9466 183.283 71.8467 184.018C70.7467 184.753 69.8894 185.797 69.3832 187.02C68.8769 188.242 68.7445 189.587 69.0025 190.884C69.2606 192.182 69.8977 193.373 70.8331 194.309C71.7685 195.244 72.9603 195.881 74.2578 196.139C75.5553 196.397 76.9001 196.265 78.1223 195.759C79.3445 195.252 80.3891 194.395 81.1241 193.295C81.859 192.195 82.2513 190.902 82.2513 189.579C82.2513 187.805 81.5466 186.104 80.2923 184.85C79.0379 183.595 77.3366 182.891 75.5627 182.891Z" fill="#203893"/>
<path d="M91.6306 309.233C91.6306 306.096 89.3193 303.57 86.4283 303.57C82.5563 303.384 78.6175 303.317 74.5894 303.317H73.3334C69.3128 303.317 65.3591 303.384 61.4945 303.57C58.6481 303.57 56.3368 306.104 56.3368 309.248C56.1585 311.737 56.0841 314.219 56.0916 316.679C56.099 319.139 56.1585 321.651 56.3294 324.111C56.3294 327.255 58.6407 329.804 61.4871 329.804C65.5449 329.99 69.7141 330.071 73.9503 330.071C78.1864 330.071 82.3483 329.997 86.4209 329.804C89.2747 329.804 91.6232 327.255 91.6232 324.111C91.7867 321.622 91.8684 319.139 91.861 316.642C91.8535 314.145 91.7941 311.678 91.6306 309.21V309.233ZM70.5762 323.554V309.835L80.6984 316.687L70.5762 323.554Z" fill="#203893"/>
<path d="M86.2794 27.3018H28.2888V85.2923H86.2794V27.3018Z" fill="white"/>
<path d="M56.9831 40.4562C53.3754 40.4239 49.868 41.6424 47.0575 43.9046C44.2469 46.1668 42.307 49.3328 41.5676 52.8641C40.8282 56.3953 41.3351 60.0737 43.0021 63.2733C44.669 66.473 47.393 68.9962 50.7106 70.4139C50.644 69.2108 50.7339 68.0042 50.9782 66.8243C51.2829 65.5535 52.9922 58.3 52.9922 58.3C52.6495 57.5231 52.4772 56.6818 52.4869 55.8327C52.4869 53.5139 53.832 51.7823 55.5042 51.7823C56.9311 51.7823 57.6148 52.8525 57.6148 54.1308C57.6148 55.5577 56.7007 57.698 56.2325 59.6749C56.1387 60.042 56.1326 60.426 56.2146 60.7958C56.2967 61.1657 56.4646 61.5111 56.7047 61.804C56.9449 62.097 57.2507 62.3294 57.5972 62.4824C57.9438 62.6354 58.3215 62.7048 58.6999 62.6848C61.6726 62.6848 63.6569 58.8797 63.6569 54.3686C63.6569 50.9425 61.3456 48.386 57.154 48.386C56.1514 48.3498 55.1518 48.517 54.2155 48.8776C53.2793 49.2381 52.4257 49.7845 51.7063 50.4838C50.9869 51.1831 50.4165 52.0208 50.0295 52.9465C49.6425 53.8721 49.447 54.8665 49.4547 55.8698C49.4058 56.9857 49.7741 58.0799 50.4877 58.9392C50.6146 59.04 50.705 59.1795 50.7453 59.3365C50.7855 59.4934 50.7734 59.6593 50.7106 59.8087C50.6363 60.0985 50.4654 60.7897 50.3911 61.0647C50.3774 61.1496 50.3436 61.2301 50.2927 61.2994C50.2418 61.3688 50.1751 61.425 50.0981 61.4635C50.0211 61.5019 49.9361 61.5216 49.8501 61.5207C49.7641 61.5199 49.6795 61.4986 49.6033 61.4586C47.4183 60.5667 46.4002 58.1737 46.4002 55.5131C46.4002 51.054 50.1161 45.7477 57.5479 45.7477C63.4934 45.7477 67.4471 50.0656 67.4471 54.703C67.4471 60.8343 64.0359 65.4197 59.0045 65.4197C58.2567 65.441 57.5156 65.2739 56.8493 64.9336C56.1831 64.5933 55.6132 64.0909 55.1921 63.4726C55.1921 63.4726 54.2779 67.0696 54.0847 67.7682C53.7259 68.955 53.1978 70.0839 52.5166 71.1199C53.9649 71.5444 55.4664 71.7596 56.9757 71.7591C61.1267 71.7601 65.1081 70.112 68.044 67.1775C70.9799 64.243 72.6298 60.2624 72.6308 56.1114C72.6318 51.9603 70.9838 47.9789 68.0493 45.043C65.1147 42.1071 61.1341 40.4572 56.9831 40.4562Z" fill="#203893"/>
<path d="M126.255 277.617C126.649 277.617 126.969 277.297 126.969 276.903C126.969 276.509 126.649 276.19 126.255 276.19C125.861 276.19 125.542 276.509 125.542 276.903C125.542 277.297 125.861 277.617 126.255 277.617Z" fill="#575988"/>
<path d="M127.154 278.932C127.548 278.932 127.868 278.613 127.868 278.219C127.868 277.825 127.548 277.505 127.154 277.505C126.76 277.505 126.441 277.825 126.441 278.219C126.441 278.613 126.76 278.932 127.154 278.932Z" fill="#575988"/>
<path d="M128.091 280.366C128.485 280.366 128.804 280.047 128.804 279.653C128.804 279.259 128.485 278.939 128.091 278.939C127.697 278.939 127.377 279.259 127.377 279.653C127.377 280.047 127.697 280.366 128.091 280.366Z" fill="#575988"/>
<path d="M212.383 299.151C212.703 299.151 212.963 298.892 212.963 298.571C212.963 298.251 212.703 297.992 212.383 297.992C212.063 297.992 211.803 298.251 211.803 298.571C211.803 298.892 212.063 299.151 212.383 299.151Z" fill="#575988"/>
<path d="M212.472 300.474C212.792 300.474 213.052 300.214 213.052 299.894C213.052 299.574 212.792 299.314 212.472 299.314C212.152 299.314 211.892 299.574 211.892 299.894C211.892 300.214 212.152 300.474 212.472 300.474Z" fill="#575988"/>
<path d="M212.546 301.789C212.866 301.789 213.126 301.53 213.126 301.21C213.126 300.889 212.866 300.63 212.546 300.63C212.226 300.63 211.967 300.889 211.967 301.21C211.967 301.53 212.226 301.789 212.546 301.789Z" fill="#575988"/>
</svg>
