<svg width="42" height="53" viewBox="0 0 42 53" fill="none" xmlns="http://www.w3.org/2000/svg">
<path d="M40.44 40.1067L37 36.6667V23.3334C37 15.1467 32.6267 8.29335 25 6.48002V4.66669C25 2.45335 23.2133 0.666687 21 0.666687C18.7867 0.666687 17 2.45335 17 4.66669V6.48002C9.34665 8.29335 4.99998 15.12 4.99998 23.3334V36.6667L1.55998 40.1067C-0.120015 41.7867 1.05332 44.6667 3.42665 44.6667H38.5467C40.9467 44.6667 42.12 41.7867 40.44 40.1067ZM31.6667 39.3334H10.3333V23.3334C10.3333 16.72 14.36 11.3334 21 11.3334C27.64 11.3334 31.6667 16.72 31.6667 23.3334V39.3334ZM21 52.6667C23.9333 52.6667 26.3333 50.2667 26.3333 47.3334H15.6667C15.6667 48.7479 16.2286 50.1044 17.2288 51.1046C18.2289 52.1048 19.5855 52.6667 21 52.6667Z" fill="white"/>
</svg>
